<svg width="24" height="24" viewBox="0 0 24 24" fill="none" xmlns="http://www.w3.org/2000/svg">

<path d="M12 15.5C13.933 15.5 15.5 13.933 15.5 12C15.5 10.067 13.933 8.5 12 8.5C10.067 8.5 8.5 10.067 8.5 12C8.5 13.933 10.067 15.5 12 15.5Z"
stroke="#94A3B8"
stroke-width="2"/>

<path d="M19.43 12.98C19.47 12.66 19.5 12.33 19.5 12C19.5 11.67 19.47 11.34 19.43 11.02L21.02 9.78L19.02 6.32L17.14 7.08C16.63 6.68 16.06 6.35 15.43 6.11L15.15 4H8.85L8.57 6.11C7.94 6.35 7.37 6.68 6.86 7.08L4.98 6.32L2.98 9.78L4.57 11.02C4.53 11.34 4.5 11.67 4.5 12C4.5 12.33 4.53 12.66 4.57 12.98L2.98 14.22L4.98 17.68L6.86 16.92C7.37 17.32 7.94 17.65 8.57 17.89L8.85 20H15.15L15.43 17.89C16.06 17.65 16.63 17.32 17.14 16.92L19.02 17.68L21.02 14.22L19.43 12.98Z"
stroke="#94A3B8"
stroke-width="2"
stroke-linejoin="round"/>

</svg>